<?xml version="1.0" encoding="UTF-8"?>
<svg version="1.1" xmlns="http://www.w3.org/2000/svg" width="48" height="48">
<path d="M0 0 C13.86 0 27.72 0 42 0 C42 10.89 42 21.78 42 33 C28.14 33 14.28 33 0 33 C0 22.11 0 11.22 0 0 Z " fill="#3A3F42" transform="translate(3,7)"/>
<path d="M0 0 C13.86 0 27.72 0 42 0 C42 10.89 42 21.78 42 33 C28.14 33 14.28 33 0 33 C0 22.11 0 11.22 0 0 Z M3 3 C3 11.91 3 20.82 3 30 C14.88 30 26.76 30 39 30 C39 21.09 39 12.18 39 3 C27.12 3 15.24 3 3 3 Z " fill="#DDE3E6" transform="translate(3,7)"/>
<path d="M0 0 C0.99 0.33 1.98 0.66 3 1 C3 1.66 3 2.32 3 3 C2.34 3 1.68 3 1 3 C1 3.66 1 4.32 1 5 C1.99 5.33 2.98 5.66 4 6 C4 6.99 4 7.98 4 9 C2.02 9.99 2.02 9.99 0 11 C-0.66 10.01 -1.32 9.02 -2 8 C-1.34 8 -0.68 8 0 8 C-0.66 7.01 -1.32 6.02 -2 5 C-1.48275862 1.48275862 -1.48275862 1.48275862 0 0 Z " fill="#CDCECE" transform="translate(13,13)"/>
</svg>
